PathFileType	4	(X/Y/Z)	Kaydara																																																																																																																									
DataRate	CameraRate	NumFrames	NumMarkers	Units	OrigDataRate	OrigDataStartFrame	OrigNumFrames																																																																																																																					
30	30	9	41	mm	30	55	145																																																																																																																					
Frame#	Time	NABA_LFHD			NABA_RFHD			NABA_LBHD			NABA_RBHD			NABA_LFTShould			NABA_RFTShould			NABA_LRRShould			NABA_RRRShould			NABA_T10			NABA_STRN			NABA_TRUN			NABA_LSHO			NABA_LUPA			NABA_LELB			NABA_LFRM			NABA_LWRA			NABA_LWRB			NABA_LFIN			NABA_RSHO			NABA_RUPA			NABA_RELB			NABA_RFRM			NABA_RWRA			NABA_RWRB			NABA_RFIN			NABA_LFWT			NABA_RFWT			NABA_LBWT			NABA_RBWT			NABA_LTHI			NABA_LKNE			NABA_LSHN			NABA_LANK			NABA_LHEE			NABA_LTOE			NABA_RTHI			NABA_RKNE			NABA_RSHN			NABA_RANK			NABA_RHEE			NABA_RTOE		
		X1	Y1	Z1	X2	Y2	Z2	X3	Y3	Z3	X4	Y4	Z4	X5	Y5	Z5	X6	Y6	Z6	X7	Y7	Z7	X8	Y8	Z8	X9	Y9	Z9	X10	Y10	Z10	X11	Y11	Z11	X12	Y12	Z12	X13	Y13	Z13	X14	Y14	Z14	X15	Y15	Z15	X16	Y16	Z16	X17	Y17	Z17	X18	Y18	Z18	X19	Y19	Z19	X20	Y20	Z20	X21	Y21	Z21	X22	Y22	Z22	X23	Y23	Z23	X24	Y24	Z24	X25	Y25	Z25	X26	Y26	Z26	X27	Y27	Z27	X28	Y28	Z28	X29	Y29	Z29	X30	Y30	Z30	X31	Y31	Z31	X32	Y32	Z32	X33	Y33	Z33	X34	Y34	Z34	X35	Y35	Z35	X36	Y36	Z36	X37	Y37	Z37	X38	Y38	Z38	X39	Y39	Z39	X40	Y40	Z40	X41	Y41	Z41
																																																																																																																												
55	1.81	269.96792	1558.36136	-1678.59375	98.90841	1528.63495	-1666.06262	285.78033	1572.86087	-1803.10989	68.49504	1544.19327	-1760.80658	266.74564	1317.45148	-1769.52988	119.02445	1299.99847	-1774.15131	266.47083	1380.5658	-1886.07437	120.65199	1375.52017	-1881.52145	210.91211	1222.05605	-1974.03778	200.35812	1255.76721	-1727.0459	201.62735	1152.10892	-1691.88217	356.73141	1344.00314	-1819.04572	416.16901	1128.64517	-1895.91476	419.84314	1032.51122	-1900.74173	410.19966	962.37808	-1943.73245	374.14906	797.49062	-1913.79272	444.69742	804.11659	-1926.6507	435.79491	736.67679	-1896.48224	42.90613	1335.84091	-1820.29419	1.34567	1200.24193	-1961.082	-49.57328	1073.70346	-1992.67303	-64.28847	997.54478	-2045.49561	-27.75614	846.73912	-2064.47723	-103.74071	851.48811	-2072.8006	-93.65663	800.14969	-2059.42749	329.7514	915.38933	-1832.82913	60.08259	925.16365	-1831.04736	274.53375	988.3876	-1994.11636	108.81867	1025.16945	-1991.01837	323.72429	648.08479	-2016.98883	313.1258	489.86534	-1987.60178	255.78041	294.73248	-1999.29962	280.79285	154.79742	-2089.29657	223.82469	113.2334	-2151.02219	249.50642	82.38144	-1982.08817	46.02254	651.4653	-1899.49692	67.96494	526.61385	-1731.22101	80.97797	349.72664	-1791.63483	72.46755	196.97409	-1924.81461	118.48602	177.49769	-2002.09351	86.81608	107.31418	-1846.67145
56	1.843	270.816	1553.4935	-1653.37433	99.75243	1524.07196	-1641.51031	287.21813	1567.89993	-1777.69287	69.60384	1539.77722	-1736.56326	265.7206	1310.73074	-1744.46671	118.89785	1294.46579	-1752.59506	269.33695	1376.49185	-1858.72009	123.5747	1372.28058	-1858.34564	217.02362	1219.98741	-1951.03638	198.20553	1249.54689	-1704.09668	197.99963	1145.24635	-1670.42877	357.28714	1338.67462	-1789.78195	420.81573	1125.02884	-1865.79849	424.9049	1027.41386	-1869.63348	415.52586	953.21739	-1910.12482	372.28519	791.62239	-1868.26019	443.25706	795.37209	-1879.95224	432.63515	732.03682	-1844.60968	44.51823	1331.25061	-1799.43451	8.62626	1201.43036	-1945.62347	-43.40182	1076.8885	-1983.43079	-57.2643	1003.27843	-2039.59793	-22.89088	852.49435	-2063.25272	-98.52757	859.28047	-2074.2215	-89.64173	806.94702	-2062.87567	330.28931	909.57741	-1811.34644	60.26472	923.36258	-1815.83817	280.68516	984.81697	-1972.80197	114.67902	1022.74902	-1974.98688	324.21814	647.09259	-2004.01184	312.51745	487.9604	-1979.76486	254.96408	293.91594	-1995.42557	280.11749	155.13709	-2087.16324	223.22794	115.12481	-2149.8085	248.31291	81.39712	-1981.42975	47.26727	651.10832	-1875.95978	69.69964	535.04002	-1702.13181	82.40177	352.87811	-1742.69028	81.58853	182.10087	-1851.90247	132.90204	150.33739	-1920.66437	89.1411	104.26661	-1759.61029
57	1.877	271.04986	1547.29874	-1626.9046	100.04452	1518.41949	-1615.42099	287.98981	1561.33148	-1751.30463	70.16396	1534.01184	-1710.69168	264.12855	1302.97913	-1717.61475	118.00956	1287.52365	-1729.49432	271.31138	1371.34888	-1829.74915	125.44926	1367.6947	-1833.55087	221.84891	1216.98494	-1926.69739	195.57461	1241.47179	-1679.33136	194.15865	1136.33659	-1648.55545	356.70162	1331.87698	-1759.22745	426.022	1119.53018	-1834.56863	432.02141	1021.4312	-1837.6149	423.53115	943.00621	-1873.37448	370.82863	787.63283	-1821.42624	441.60934	786.88179	-1828.61542	425.52715	728.04512	-1787.95624	44.68329	1325.18921	-1778.17764	12.07237	1199.68964	-1927.06833	-40.07939	1076.61911	-1969.28802	-53.43867	1004.34372	-2027.37717	-18.70204	854.25133	-2054.20746	-93.98204	860.98297	-2065.98892	-85.24405	808.35106	-2056.7717	330.20874	903.73627	-1788.97003	59.78657	919.86542	-1799.24942	286.36133	979.82368	-1949.75342	119.71538	1018.23708	-1957.21634	325.22049	645.31219	-1987.24014	312.60885	485.73174	-1968.18756	254.89025	292.84174	-1989.06326	279.78355	156.17663	-2084.35242	222.82499	117.91932	-2147.74094	247.84296	80.82911	-1980.67947	48.65745	647.91084	-1853.89908	71.30744	536.56609	-1679.07349	82.4236	353.29216	-1695.36499	85.35035	164.87017	-1769.44687	138.51152	121.3334	-1828.85437	88.7264	102.0601	-1662.5766
58	1.91	270.81491	1539.54559	-1599.50272	99.70559	1511.48956	-1588.15735	288.0611	1553.30414	-1723.87619	69.95747	1527.30194	-1683.61862	262.12219	1294.40063	-1690.86975	116.52666	1279.51477	-1704.87518	271.46179	1364.86862	-1801.04095	125.6252	1362.15988	-1807.4118	224.11221	1212.3613	-1901.45981	193.23576	1232.31186	-1654.3338	190.92072	1126.63658	-1625.06332	355.74947	1323.72086	-1730.40497	431.32652	1112.69958	-1802.11746	440.93613	1014.30565	-1801.34155	433.85666	931.7659	-1832.58987	367.05215	782.99614	-1774.82056	439.43573	778.97507	-1774.07333	415.70637	726.16875	-1729.46198	43.95889	1318.22906	-1754.13818	14.74819	1195.90683	-1905.86395	-38.04557	1074.3898	-1951.34796	-50.60634	1002.24655	-2010.61844	-15.66738	851.94695	-2037.51862	-90.3947	859.38515	-2051.38718	-82.07287	806.78749	-2042.46872	330.37857	898.3667	-1763.25836	59.49361	914.56451	-1778.90839	290.63488	974.17427	-1924.09546	122.77231	1011.89346	-1936.20255	327.34398	643.51173	-1967.51465	313.56976	483.64906	-1954.13391	254.8913	291.6592	-1981.69312	280.3121	157.94287	-2080.16815	223.4926	122.01143	-2145.33524	248.00228	80.50194	-1979.88434	52.33307	642.28142	-1831.81519	72.333	533.38829	-1655.31128	82.64649	354.41612	-1648.01468	82.92597	155.83011	-1684.91302	133.51669	102.80565	-1737.63184	88.29855	103.73138	-1566.74011
59	1.943	269.91623	1531.54068	-1571.03561	98.95971	1504.20319	-1559.49341	287.14676	1545.77927	-1695.40741	69.04232	1520.51468	-1654.96857	260.07296	1286.38672	-1662.79495	114.37752	1272.3439	-1678.49045	270.67261	1358.31909	-1772.79587	124.34116	1356.86432	-1780.13107	224.08882	1207.17583	-1874.72961	190.91002	1223.78288	-1628.20023	187.83581	1117.89276	-1599.75372	353.8567	1316.23306	-1700.93536	435.25703	1107.24831	-1769.03046	448.6581	1008.24112	-1764.06021	442.38575	922.49405	-1790.28503	365.21893	781.68938	-1727.099	436.36436	775.14328	-1718.20694	405.44643	728.22075	-1671.30554	42.19058	1311.81595	-1727.75406	15.10609	1191.87302	-1881.13907	-37.52344	1070.89058	-1927.61108	-49.46785	999.22729	-1988.83148	-13.31859	849.08424	-2016.09955	-88.24353	856.45622	-2030.82016	-80.10194	804.2263	-2021.01425	330.41489	893.62801	-1735.97946	59.42342	907.48917	-1754.2218	292.80241	968.38394	-1896.43433	123.29363	1003.82233	-1911.9458	328.89862	643.13118	-1946.30646	314.87829	483.18729	-1939.0451	256.25889	292.14102	-1973.24615	281.38069	161.82701	-2076.43173	224.40399	128.15871	-2142.3584	248.86688	80.40996	-1978.90076	56.1235	634.30458	-1806.00266	72.43621	527.84447	-1628.40347	80.9568	354.37885	-1603.69156	76.08266	153.21581	-1613.1572	122.73575	93.06978	-1661.02814	88.03497	112.69638	-1487.68066
60	1.977	268.46565	1525.06226	-1541.16943	97.48645	1498.27927	-1529.33716	285.59282	1539.49829	-1665.6073	67.41591	1514.99161	-1624.80652	257.46483	1280.27161	-1632.73987	111.63753	1266.20392	-1649.45374	268.50178	1353.26965	-1742.25418	121.95163	1352.53006	-1750.13779	222.45625	1203.16719	-1846.03455	187.95555	1216.67572	-1600.19104	184.90112	1110.71472	-1572.19513	351.23825	1310.82413	-1669.3129	437.17606	1104.35776	-1734.91257	454.82491	1005.79826	-1726.26801	448.91632	917.1244	-1746.95297	363.19607	783.80234	-1678.85559	433.77815	775.58144	-1664.67255	397.3119	734.11812	-1615.79056	39.60869	1306.70364	-1697.86118	12.66046	1189.17267	-1852.54196	-41.06263	1068.9135	-1900.21912	-52.64361	996.60721	-1961.77963	-12.86413	848.31673	-1990.64285	-88.59324	853.41782	-2003.89969	-78.57443	801.16394	-1993.04337	330.22148	891.4119	-1707.41882	58.02358	900.77263	-1726.01013	291.6078	963.35915	-1869.04541	121.51307	995.43533	-1885.20828	329.1338	644.56223	-1922.74719	316.31796	484.55189	-1920.68466	258.42083	293.81149	-1961.86752	282.93587	168.53056	-2070.89401	225.64486	137.54845	-2137.85797	250.37409	80.59748	-1977.16537	57.52035	626.09859	-1774.47845	72.84182	520.65067	-1598.13889	78.76497	352.54742	-1564.49966	69.38607	151.6968	-1560.80536	113.57035	87.76406	-1606.23657	83.41187	116.4586	-1432.85904
61	2.01	266.57831	1521.8428	-1509.40308	95.65329	1495.66895	-1496.95557	283.26794	1536.1203	-1634.02069	65.17995	1512.39594	-1592.35748	254.00511	1276.98891	-1600.06729	108.85337	1262.83005	-1617.05597	264.94877	1351.1824	-1709.39255	118.11665	1350.94528	-1716.95084	219.08453	1201.77917	-1814.25751	184.66671	1212.54128	-1568.71063	182.01513	1106.63651	-1541.13708	346.98639	1308.95691	-1635.44342	438.22395	1105.75485	-1697.98447	460.35172	1008.13339	-1686.96365	455.27718	917.12906	-1703.77197	361.52134	790.04135	-1633.30887	431.19759	780.97145	-1614.31427	390.13741	743.45184	-1565.89737	35.97034	1304.61319	-1663.84521	6.41626	1190.49767	-1819.70398	-48.40657	1070.78087	-1868.47137	-59.97772	996.94801	-1929.95865	-14.04831	850.81619	-1960.66589	-90.39738	852.29927	-1970.7811	-77.5972	800.76103	-1959.43741	330.67036	891.75903	-1677.12311	56.65869	897.66617	-1691.8454	286.41363	960.60394	-1840.34058	117.68934	989.98489	-1853.53088	327.88738	647.49779	-1896.03271	318.11163	487.41493	-1898.05817	261.71757	297.11243	-1947.5174	285.38839	177.88168	-2062.92694	228.29981	150.83498	-2131.05835	252.38607	81.13206	-1974.54727	55.57399	621.47755	-1740.04456	71.87527	515.73933	-1564.46945	76.52495	347.4057	-1532.23358	66.4807	146.69256	-1531.81915	110.42068	83.85507	-1578.57773	80.5088	108.83239	-1404.84161
62	2.043	263.93553	1522.78198	-1474.81461	93.03251	1497.3056	-1461.53458	280.09972	1537.5766	-1599.53949	62.11754	1514.52774	-1556.78925	250.43787	1279.29741	-1564.69482	104.55218	1265.11536	-1579.81537	259.77673	1353.08197	-1675.38055	113.19961	1352.81189	-1680.65216	213.66131	1202.95494	-1778.88992	181.70908	1214.18144	-1533.23532	179.31557	1108.57086	-1504.97879	342.68749	1312.17941	-1600.67154	440.17612	1113.00522	-1660.73456	464.22283	1014.42215	-1648.62778	459.93008	923.23082	-1663.21472	361.40305	799.87961	-1592.80869	429.74037	790.77255	-1570.08362	384.55532	755.57465	-1522.5174	31.69818	1306.67282	-1626.32126	-1.90536	1196.64696	-1782.47086	-58.78592	1078.05984	-1833.00598	-69.53986	1002.14027	-1894.47021	-16.66256	858.67722	-1927.0079	-93.1293	855.48111	-1932.69684	-76.84085	805.70038	-1920.39139	329.67594	892.95502	-1642.90512	55.37571	899.66431	-1652.05185	278.04729	961.79283	-1806.47049	112.00994	992.39182	-1814.63104	325.67799	652.78511	-1864.59946	318.96177	492.96135	-1870.91766	264.97816	303.31514	-1929.09348	290.1664	191.54673	-2051.44257	234.19298	169.20597	-2120.98785	255.38088	82.13025	-1970.60043	51.75958	623.99338	-1702.6886	69.68275	514.51496	-1530.37598	76.6306	343.19729	-1506.69037	68.64772	143.00896	-1522.42813	113.30296	85.41047	-1573.63205	81.85751	94.0582	-1398.57712
63	2.077	259.8752	1530.13504	-1435.71777	89.13314	1504.64035	-1422.6384	276.25246	1545.13062	-1560.41748	58.24009	1521.99051	-1517.99301	246.68354	1287.33688	-1525.25574	100.94545	1272.64702	-1540.35446	255.38399	1360.41946	-1636.4566	108.64119	1360.05112	-1641.12411	208.51591	1210.03555	-1739.42871	178.09776	1222.14966	-1493.71368	176.12043	1116.88538	-1464.75006	338.75061	1320.34454	-1561.78421	439.86065	1124.97803	-1624.60617	464.90376	1026.70738	-1612.6265	461.39317	935.29762	-1627.52884	364.39243	811.40762	-1560.3183	430.09995	803.00468	-1534.60999	384.12937	767.72514	-1487.29263	27.54734	1314.17816	-1585.93658	-7.53712	1207.68997	-1743.10928	-68.29292	1091.10939	-1795.61325	-79.33785	1012.07527	-1854.9736	-22.19126	870.34775	-1885.57693	-98.22433	863.55072	-1888.98865	-78.55029	814.5565	-1875.88638	324.34139	898.51257	-1602.90955	50.10785	907.03522	-1611.23718	269.34721	969.51927	-1766.56448	106.936	1001.84967	-1772.53281	322.03793	660.82314	-1826.33469	317.2934	501.82449	-1834.88403	266.76512	313.92155	-1903.03421	294.28778	210.36293	-2032.267	239.69915	193.52371	-2102.70172	257.4301	82.84567	-1963.11737	47.80323	630.70774	-1670.79041	69.8689	516.98669	-1503.9711	78.93593	341.81644	-1485.87555	70.62172	142.40555	-1510.08179	113.08123	88.1494	-1566.57547	88.2085	88.42349	-1391.49475
